<svg width="16" height="20" viewBox="0 0 16 20" fill="none" xmlns="http://www.w3.org/2000/svg">
<g clip-path="url(#clip0)">
<path d="M5.64195 3.27789L11.805 9.36689C11.8666 9.4274 11.9156 9.4996 11.9491 9.57927C11.9825 9.65894 11.9998 9.74448 11.9998 9.83089C11.9998 9.91729 11.9825 10.0028 11.9491 10.0825C11.9156 10.1622 11.8666 10.2344 11.805 10.2949L5.64195 16.3889C5.46042 16.567 5.21626 16.6667 4.96195 16.6667C4.70764 16.6667 4.46349 16.567 4.28195 16.3889C4.19294 16.3011 4.12226 16.1964 4.07402 16.0811C4.02578 15.9657 4.00094 15.8419 4.00094 15.7169C4.00094 15.5918 4.02578 15.4681 4.07402 15.3527C4.12226 15.2373 4.19294 15.1327 4.28195 15.0449L9.55395 9.83289L4.28095 4.62289C4.19179 4.53505 4.12098 4.43036 4.07265 4.31491C4.02432 4.19946 3.99943 4.07555 3.99943 3.95039C3.99943 3.82523 4.02432 3.70132 4.07265 3.58586C4.12098 3.47041 4.19179 3.36572 4.28095 3.27789C4.46249 3.09979 4.70664 3.00003 4.96095 3.00003C5.21526 3.00003 5.45942 3.09979 5.64095 3.27789" fill="#DE4B4B"/>
</g>
<defs>
<clipPath id="clip0">
<rect width="20" height="16" fill="white" transform="translate(0 20) rotate(-90)"/>
</clipPath>
</defs>
</svg>
