<svg width="14" height="11" viewBox="0 0 14 11" fill="none" xmlns="http://www.w3.org/2000/svg">
<g clip-path="url(#clip0)">
<path d="M12.9621 1.39704L11.8001 0.238037C11.6461 0.085249 11.438 -0.000488281 11.2211 -0.000488281C11.0042 -0.000488281 10.7961 0.085249 10.6421 0.238037L5.05512 5.83804L2.55512 3.32204C2.47999 3.24491 2.38985 3.18401 2.29027 3.14307C2.19068 3.10214 2.08377 3.08205 1.97612 3.08404C1.86897 3.08246 1.76263 3.10275 1.66359 3.14367C1.56455 3.18459 1.4749 3.24529 1.40012 3.32204L0.238117 4.47904C0.0855706 4.63313 0 4.8412 0 5.05804C0 5.27487 0.0855706 5.48294 0.238117 5.63704L3.32112 8.72204L4.47912 9.88004C4.63309 10.0328 4.84121 10.1186 5.05812 10.1186C5.27503 10.1186 5.48315 10.0328 5.63712 9.88004L6.80012 8.72204L12.9661 2.55604C13.1187 2.40194 13.2042 2.19387 13.2042 1.97704C13.2042 1.7602 13.1187 1.55213 12.9661 1.39804L12.9621 1.39704Z" fill="white"/>
</g>
<defs>
<clipPath id="clip0">
<rect width="13.2" height="10.117" fill="white"/>
</clipPath>
</defs>
</svg>
