<svg width="16" height="14" viewBox="0 0 16 14" fill="none" xmlns="http://www.w3.org/2000/svg">
<path d="M10.3578 13.7219L4.19481 7.6329C4.13313 7.5724 4.08413 7.5002 4.05068 7.4205C4.01723 7.3408 4 7.2553 4 7.1689C4 7.0825 4.01723 6.99692 4.05068 6.91725C4.08413 6.83758 4.13313 6.76538 4.19481 6.70487L10.3578 0.610868C10.5394 0.432778 10.7835 0.333008 11.0378 0.333008C11.2922 0.333008 11.5363 0.432778 11.7178 0.610868C11.8069 0.698688 11.8775 0.803308 11.9258 0.918668C11.974 1.03403 11.9989 1.15783 11.9989 1.28287C11.9989 1.40791 11.974 1.5317 11.9258 1.64706C11.8775 1.76242 11.8069 1.86705 11.7178 1.95487L6.44581 7.1669L11.7188 12.3769C11.808 12.4647 11.8788 12.5694 11.9271 12.6848C11.9755 12.8003 12.0004 12.9242 12.0004 13.0494C12.0004 13.1745 11.9755 13.2984 11.9271 13.4139C11.8788 13.5293 11.808 13.634 11.7188 13.7219C11.5373 13.9 11.2932 13.9997 11.0388 13.9997C10.7845 13.9997 10.5404 13.9 10.3588 13.7219" fill="white"/>
</svg>
