<svg width="20" height="16" viewBox="0 0 20 16" fill="none" xmlns="http://www.w3.org/2000/svg">
<path d="M16.7219 5.64195L10.6329 11.805C10.5724 11.8666 10.5002 11.9156 10.4205 11.9491C10.3408 11.9825 10.2553 11.9998 10.1689 11.9998C10.0825 11.9998 9.99692 11.9825 9.91725 11.9491C9.83758 11.9156 9.76538 11.8666 9.70487 11.805L3.61087 5.64195C3.43278 5.46042 3.33301 5.21626 3.33301 4.96195C3.33301 4.70764 3.43278 4.46349 3.61087 4.28195C3.69869 4.19294 3.80331 4.12226 3.91867 4.07402C4.03403 4.02578 4.15783 4.00094 4.28287 4.00094C4.40791 4.00094 4.5317 4.02578 4.64706 4.07402C4.76242 4.12226 4.86705 4.19294 4.95487 4.28195L10.1669 9.55395L15.3769 4.28095C15.4647 4.19179 15.5694 4.12098 15.6848 4.07265C15.8003 4.02432 15.9242 3.99943 16.0494 3.99943C16.1745 3.99943 16.2984 4.02432 16.4139 4.07265C16.5293 4.12098 16.634 4.19179 16.7219 4.28095C16.9 4.46249 16.9997 4.70664 16.9997 4.96095C16.9997 5.21526 16.9 5.45942 16.7219 5.64095" fill="#DE4B4B"/>
</svg>
