<svg width="133" height="46" viewBox="0 0 133 46" fill="none" xmlns="http://www.w3.org/2000/svg">
<path d="M11.431 11.3428H16.0521L13.7421 5.46143L11.431 11.3428Z" fill="white"/>
<path d="M36.0063 31.0859V33.817H43.7783V36.7582H36.0063V39.9097H44.618L48.6087 35.4977L44.8283 31.0859H36.0063Z" fill="white"/>
<path d="M96.708 5.46143L94.1873 11.3428H99.0189L96.708 5.46143Z" fill="white"/>
<path d="M58.481 41.5883V29.616L53.0195 35.4976L58.481 41.5883Z" fill="white"/>
<path d="M68.7731 32.9772C68.5629 31.717 67.7219 31.0859 66.4611 31.0859H62.0511V34.8667H66.6725C67.9325 34.867 68.7731 34.2371 68.7731 32.9772Z" fill="white"/>
<path d="M83.475 34.4475C83.8951 34.237 84.106 33.6063 84.106 32.9774C84.3162 32.1379 83.8951 31.7171 83.475 31.5069C83.056 31.2966 82.425 31.2966 81.7957 31.2966H77.5939V34.6578H81.7954C82.4247 34.6578 83.0557 34.6578 83.475 34.4475Z" fill="white"/>
<path d="M113.72 0V2.52048L112.461 0H102.59V2.52048L101.329 0H87.8864C85.5761 0 83.6849 0.420484 82.0054 1.26054V0H72.5539V0.210241V1.26054C71.5039 0.420786 70.2436 0 68.5632 0H34.7463L32.4349 5.25121L30.1249 0H22.5638H19.4129V2.52048L18.3626 0H18.1524H9.12074L4.91923 9.87169L0.0888085 20.5837L0 20.7943H0.0888085H10.8012H10.9353L11.0114 20.5837L12.2722 17.4337H15.0027L16.2629 20.7943H28.4442V20.5837V18.2738L29.4951 20.794H35.5858L36.6355 18.2738V20.5837V20.7943H41.4665H65.6216H65.8319V15.3328H66.253C66.6725 15.3328 66.6725 15.3328 66.6725 15.9633V20.584H81.7957V19.3238C83.056 19.9548 84.9451 20.584 87.4659 20.584H93.768L95.0282 17.2241H97.968L99.2282 20.584H111.41V18.484V17.434L113.301 20.584H113.72H113.931H123.173V0H113.721H113.72V0ZM42.5174 17.6443H40.4165H39.1566V16.3849V6.09157L38.9463 6.57337V6.56763L34.06 17.6443H33.9054H32.782H30.9644L25.9237 6.09157V17.6443H18.7828L17.3126 14.4937H10.1704L8.69995 17.6443H5.00773L11.2213 2.94097H16.4719L22.353 17.0136V2.94097H23.6129H27.9177L28.0168 3.15151H28.024L30.6741 8.91926L32.5772 13.2407L32.6445 13.0229L36.8451 2.94127H42.5171V17.6443H42.5174V17.6443ZM57.0108 6.09157H48.8189V8.82199H56.8005V11.7623H48.8189V14.7039H57.0108V17.8536H45.2484V2.94127H57.0108V6.09157ZM71.992 11.5077C71.9974 11.5125 72.0044 11.5159 72.011 11.5204C72.0905 11.6044 72.1584 11.6886 72.2164 11.7693C72.6188 12.2967 72.9441 13.0812 72.9605 14.2315C72.9617 14.2514 72.9626 14.271 72.9638 14.291C72.9638 14.3025 72.9659 14.3124 72.9659 14.3242C72.9659 14.3309 72.9653 14.336 72.9653 14.3423C72.9701 14.458 72.9731 14.5761 72.9731 14.7039V17.6446H69.8231V15.9636C69.8231 15.1235 69.8231 13.8629 69.1921 13.0229C68.9937 12.8244 68.7928 12.6936 68.5741 12.6006C68.2593 12.3967 67.6627 12.3934 66.6725 12.3934H62.8906V17.6446H59.3207V2.94127H67.303C69.1921 2.94127 70.453 2.94127 71.5036 3.57139C72.5327 4.18942 73.1544 5.21435 73.1779 6.83738C73.1293 9.0727 71.6945 10.2991 70.6629 10.7127C70.6629 10.7127 71.3637 10.8537 71.992 11.5077ZM79.065 17.6443H75.4939V2.94097H79.065V17.6443ZM120.023 17.6443H115.402L108.681 6.51145V15.7533L108.659 15.7316V17.6533H105.11V17.6446H101.539L100.279 14.494H92.9267L91.6665 17.8539H87.6758C85.9966 17.8539 83.8948 17.4343 82.6352 16.1741C81.3749 14.9139 80.7454 13.2334 80.7454 10.5033C80.7454 8.40301 81.165 6.3012 82.6352 4.62138C83.6846 3.36024 85.5758 2.94127 87.8858 2.94127H91.2472V6.09157H87.8858C86.6255 6.09157 85.9966 6.3009 85.1548 6.93223C84.5258 7.56205 84.1054 8.82199 84.1054 10.2922C84.1054 11.9729 84.3156 13.0229 85.1548 13.863C85.7864 14.494 86.6258 14.7042 87.6758 14.7042H89.146L93.9764 3.15211H96.078H99.2279L105.11 17.2247V16.507V11.763V11.3434V3.15242H110.36L116.451 13.444V3.15242H120.023V17.6449H120.023V17.6443Z" fill="white"/>
<path d="M68.997 9.06484C69.0583 8.99929 69.1139 8.92498 69.161 8.8398C69.3513 8.53863 69.5694 7.99611 69.4519 7.25574C69.4471 7.18777 69.4347 7.12494 69.4202 7.06422C69.4163 7.04731 69.4169 7.03251 69.4123 7.01559L69.4102 7.01589C69.3057 6.65612 69.039 6.43501 68.7729 6.30089C68.3518 6.09156 67.7216 6.09155 67.0918 6.09155H62.8903V9.4527H67.0918C67.7216 9.4527 68.3521 9.4527 68.7729 9.24216C68.836 9.21014 68.8922 9.16664 68.9462 9.1174L68.9468 9.12012C68.9471 9.11982 68.9686 9.09746 68.997 9.06484Z" fill="white"/>
<path d="M132.415 38.6488C132.415 37.1786 131.995 35.7078 131.366 34.6578V25.2063H131.356V24.5753C131.356 24.5753 122.552 24.5753 121.242 24.5753C119.932 24.5753 118.342 25.8353 118.342 25.8353V24.5753H108.681C107.21 24.5753 105.321 24.9958 104.479 25.8353V24.5753H87.2566V25.2063V25.8349C85.9973 24.7856 83.6849 24.575 82.6355 24.575H71.293V25.206V25.8346C70.243 24.7852 67.7213 24.5747 66.4605 24.5747H53.8599L50.9186 27.7256L48.1879 24.5747H47.3086H45.8777H29.2849V25.2057V26.865V45.7901H47.7686L50.8057 42.7521L53.4382 45.7901H53.6491H64.2995H64.7822H64.9924H65.2015V43.6898V40.9593H66.2524C67.7213 40.9593 69.6126 40.9593 71.0828 40.3283V45.5789V46H80.5349V45.5789V40.5386H80.9539C81.5849 40.5386 81.5849 40.5386 81.5849 41.1687V45.5789V46H110.15C112.042 46 113.931 45.5789 114.981 44.7389V45.5789V46H124.013C125.902 46 127.794 45.7901 129.054 44.9494C130.988 43.7892 132.207 41.7354 132.388 39.2859C132.397 39.2134 132.407 39.1409 132.414 39.0681L132.402 39.0563C132.41 38.9204 132.415 38.7859 132.415 38.6488ZM66.2527 37.3889H62.0509V38.0175V39.2783V40.5389V42.8494H55.147L51.1289 38.228L51.115 38.2434L50.9186 38.0175L46.2979 42.8494H32.8554V28.1467H46.5081L50.2381 32.2322L51.0223 33.0877L51.1286 32.9774L55.54 28.147H66.6719C68.8324 28.147 71.2517 28.6802 72.1684 30.8783C72.2787 31.3136 72.3427 31.7975 72.3427 32.3473C72.3427 36.5479 69.4021 37.3889 66.2527 37.3889ZM87.2566 37.1783C87.6762 37.8069 87.8864 38.6485 87.8864 39.9093V42.8491H84.3162V40.9593C84.3162 40.1178 84.3162 38.6485 83.6852 38.0175C83.2662 37.3889 82.425 37.3889 81.1656 37.3889H77.3852V42.8494H73.8147V27.9365H81.7957C83.475 27.9365 84.9451 27.9365 85.9973 28.566C87.0466 29.1967 87.8864 30.247 87.8864 31.9274C87.8864 34.2374 86.4168 35.4976 85.3662 35.9184C86.4168 36.3368 87.0467 36.7581 87.2566 37.1783ZM101.75 31.0858H93.5572V33.8166H101.539V36.7578H93.5572V39.6988H101.75V42.8491H89.9876V27.9362H101.75V31.0858ZM110.571 42.8494H103.849V39.6991H110.571C111.2 39.6991 111.621 39.6991 112.042 39.2786C112.252 39.0681 112.461 38.6488 112.461 38.2283C112.461 37.8072 112.252 37.3892 112.042 37.1786C111.831 36.9687 111.41 36.7584 110.781 36.7584C107.42 36.5482 103.429 36.7584 103.429 32.138C103.429 30.0374 104.689 27.7265 108.47 27.7265H115.401V31.2967H108.891C108.261 31.2967 107.84 31.2967 107.42 31.5069C107.001 31.7175 107.001 32.138 107.001 32.5575C107.001 33.188 107.42 33.3982 107.84 33.6066C108.261 33.8172 108.68 33.8172 109.1 33.8172H110.991C112.881 33.8172 114.141 34.2374 114.981 35.0777C115.612 35.7081 116.032 36.7584 116.032 38.2283C116.032 41.378 114.142 42.8494 110.571 42.8494ZM128.635 41.378C127.795 42.2193 126.324 42.8494 124.223 42.8494H117.503V39.6991H124.223C124.853 39.6991 125.274 39.6991 125.694 39.2786C125.903 39.0681 126.114 38.6488 126.114 38.2283C126.114 37.8072 125.903 37.3892 125.694 37.1786C125.484 36.9687 125.064 36.7584 124.434 36.7584C121.074 36.5482 117.082 36.7584 117.082 32.1383C117.082 30.1419 118.224 28.3385 121.041 27.8029C121.378 27.7564 121.734 27.7265 122.123 27.7265H129.055V31.2967H124.434H122.754H122.544C121.913 31.2967 121.494 31.2967 121.074 31.5069C120.863 31.7175 120.652 32.138 120.652 32.5575C120.652 33.188 120.863 33.3982 121.494 33.6066C121.913 33.8172 122.333 33.8172 122.754 33.8172H122.963H124.644C125.562 33.8172 126.256 33.9305 126.891 34.1537C127.473 34.3642 129.399 35.2257 129.83 37.4747C129.867 37.7103 129.895 37.9562 129.895 38.2283C129.895 39.4889 129.474 40.5389 128.635 41.378Z" fill="white"/>
</svg>
