<svg width="53" height="46" viewBox="0 0 53 46" fill="none" xmlns="http://www.w3.org/2000/svg">
<path d="M29.7983 0H23.0001C10.2965 0 0 10.2964 0 23C0 35.7016 10.2965 46 23 46H29.7982C42.5018 46 52.7982 35.7015 52.7982 23C52.7983 10.2964 42.5018 0 29.7983 0ZM23 43.8013C11.5125 43.8013 2.19865 34.4874 2.19865 23C2.19865 11.5126 11.5126 2.19865 23 2.19865C34.4874 2.19865 43.8015 11.5125 43.8015 23C43.8015 34.4875 34.4875 43.8013 23 43.8013Z" fill="white"/>
<path d="M18.2022 10.8408C13.3577 12.7542 9.92847 17.4749 9.92847 22.9996C9.92847 28.5244 13.3577 33.2451 18.2022 35.1585V10.8408Z" fill="white"/>
<path d="M27.7979 10.8408V35.1585C32.6426 33.2451 36.0718 28.5244 36.0718 22.9996C36.0718 17.4749 32.6426 12.7541 27.7979 10.8408Z" fill="white"/>
</svg>
