<svg width="270" height="46" viewBox="0 0 270 46" fill="none" xmlns="http://www.w3.org/2000/svg">
<path d="M165.345 22.8803C165.37 17.0972 163.202 11.3058 158.838 6.94144C154.465 2.56811 148.659 0.401565 142.864 0.436374C142.836 0.436374 142.809 0.43457 142.78 0.43457C130.196 0.43457 120.214 10.4139 120.214 23.0016C120.214 35.4649 130.319 45.5667 142.78 45.5667C155.368 45.5667 165.348 35.5856 165.348 23.0016C165.348 22.9601 165.345 22.9211 165.345 22.8803Z" fill="white"/>
<path d="M116.018 32.5475C112.645 35.924 109.532 37.2431 106.179 37.3146C98.0105 37.2413 92.0048 31.1918 92.0048 22.567C92.0048 18.2255 93.6486 14.6672 96.2527 11.6274C98.6947 9.30898 101.841 7.811 105.458 7.811C109.364 7.811 112.403 9.11273 115.872 12.5846V2.60347C112.403 0.868421 109.363 0 105.458 0C99.9418 0.394301 94.7403 2.62327 90.7504 6.12337C89.6006 7.15804 88.4987 8.30013 87.5642 9.60726C84.6499 13.3846 82.8884 18.01 82.8884 23.0027C82.8884 35.5861 92.8732 45.1334 105.458 45.1334C105.519 45.1334 105.58 45.128 105.639 45.1274C105.724 45.1286 105.807 45.1334 105.891 45.1334C109.362 45.1334 112.403 44.2674 116.308 42.5311L116.018 32.5475C115.872 32.694 116.163 32.8302 116.018 32.9688V32.5475Z" fill="white"/>
<path d="M193.837 6.21524L184.009 30.3786L172.725 1.73389H163.613L181.405 45.5661H186.179L204.84 1.73389H195.728L193.837 6.21524Z" fill="white"/>
<path d="M208.313 20.8296V44.2662H231.749H232.181V37.32H224.804H216.992V29.5102V25.6056H231.749V18.2255H216.992V9.11278H232.181V1.73389H208.313V20.8296Z" fill="white"/>
<path d="M12.1537 1.73389H0V44.2662H12.1531C18.6618 44.2662 23.4348 42.5288 27.3406 39.4908C32.1136 35.585 35.1528 29.5108 35.1528 23.0021C35.1534 10.4133 26.0383 1.73389 12.1537 1.73389ZM22.1343 33.8505C19.5302 36.0195 16.0583 37.32 10.8502 37.32H8.24612V9.11218H10.4157C15.6238 9.11218 19.0957 9.98001 21.7004 12.5829C24.7377 15.1851 26.4746 19.0933 26.4746 23.0003C26.9085 26.9062 25.1729 31.2441 22.1343 33.8505Z" fill="white"/>
<path d="M47.3071 1.73022H39.0616V44.2613H47.3071V1.73022Z" fill="white"/>
<path d="M68.1361 18.2254C62.9291 16.4897 61.6256 15.1868 61.6256 13.0178C61.6256 10.4138 64.2297 8.24423 67.7016 8.24423C70.3056 8.24423 72.4752 9.11265 74.6453 11.7167L78.9863 6.07527C75.5132 3.03609 71.1753 1.30225 66.401 1.30225C59.0215 1.30225 52.9456 6.51038 52.9456 13.4518C52.9456 19.5289 55.552 22.1324 63.3625 25.1704C66.8343 26.4703 68.1367 26.906 69.0063 27.7738C70.7389 28.6404 71.6086 30.3779 71.6086 32.1118C71.6086 35.5842 69.0063 38.1889 65.0981 38.1889C61.1887 38.1889 57.7198 36.0193 55.9836 32.5469L50.7754 37.755C54.683 43.3964 59.4566 45.9999 65.5326 45.9999C74.2114 45.9999 80.2844 40.3585 80.2844 32.1118C80.2856 24.7359 77.6839 21.6979 68.1361 18.2254Z" fill="white"/>
<path d="M255.618 26.4704C262.125 25.1705 265.598 20.829 265.598 14.3209C265.598 6.51052 259.955 1.73389 250.409 1.73389H237.823V44.2662H246.068V27.3389H247.372L259.086 44.2662H269.069L255.618 26.4704ZM248.671 21.2623H246.069V8.24436H248.671C253.879 8.24436 256.919 10.4133 256.919 14.756C256.919 19.0939 253.88 21.2623 248.671 21.2623Z" fill="white"/>
</svg>
