<svg width="67" height="46" viewBox="0 0 67 46" fill="none" xmlns="http://www.w3.org/2000/svg">
<path fill-rule="evenodd" clip-rule="evenodd" d="M14.1958 46H3.09372V28.5082C4.80373 29.6985 7.03177 30.4336 9.39399 30.4336C13.542 30.4336 19.1539 28.1144 19.1539 23.7226V15.7932H12.1999V23.7228C12.1999 26.0419 10.3695 27.8715 7.80725 27.8715C5.5716 27.8708 3.56137 26.5079 3.09372 24.5482V8.66139C3.09372 3.17102 6.87657 0 11.878 0H22.6128V37.583C22.6128 42.3408 18.0994 46 14.1958 46Z" fill="white"/>
<path fill-rule="evenodd" clip-rule="evenodd" d="M58.4181 46H47.316V45.9998H47.3167V29.2121H60.2596C62.3344 29.2121 63.9188 27.7477 63.9188 25.9188C63.9188 24.0892 62.3344 22.625 60.2596 22.6253C62.0892 22.6253 63.6765 21.038 63.6765 19.2092C63.6765 17.3788 62.0885 15.7922 60.2596 15.7922H47.3167V8.66139C47.3167 3.17102 51.0996 0 56.101 0H66.8364V37.583C66.8364 42.3408 62.3217 46 58.4181 46ZM55.502 21.8931H50.7435V17.2561H55.502C56.7221 17.2561 57.8199 18.3554 57.8199 19.5739C57.8199 20.7953 56.7221 21.8931 55.502 21.8931ZM57.942 25.4301C57.942 26.6501 56.8427 27.7479 55.6242 27.7479V27.7471H50.7435V23.1122H55.6242C56.8429 23.1122 57.942 24.21 57.942 25.4301Z" fill="white"/>
<path fill-rule="evenodd" clip-rule="evenodd" d="M36.1556 46H25.0535V27.4964C26.2439 28.5598 27.8061 29.2122 29.4985 29.2122H41.2109V26.8943C38.4051 27.5047 35.7192 27.7477 34.3778 27.7492C31.4512 27.7492 29.1334 25.4314 29.1334 22.5035C29.1334 19.5755 31.4512 17.2577 34.3778 17.2577C35.7192 17.2577 38.4051 17.6236 41.2109 18.2339V15.7932H29.4985C27.8061 15.7932 26.2439 16.4459 25.0535 17.5095V8.66139C25.0535 3.17102 28.8349 0 33.8378 0H44.5739V37.583C44.5739 42.3408 40.0592 46 36.1556 46Z" fill="white"/>
</svg>
