<svg width="60" height="46" viewBox="0 0 60 46" fill="none" xmlns="http://www.w3.org/2000/svg">
<path d="M10.7923 45.6259V42.5929C10.7923 41.4505 10.0644 40.6821 8.89164 40.672C8.27494 40.6619 7.63802 40.854 7.19318 41.5314C6.85956 40.9955 6.33384 40.672 5.59582 40.672C5.08022 40.672 4.57472 40.8237 4.18044 41.3898V40.7933H3.12901V45.6259H4.19055V42.9467C4.19055 42.1076 4.6556 41.6628 5.3734 41.6628C6.07099 41.6628 6.42483 42.1177 6.42483 42.9366V45.6259H7.48637V42.9467C7.48637 42.1076 7.97165 41.6628 8.66923 41.6628C9.38703 41.6628 9.73077 42.1177 9.73077 42.9366V45.6259H10.7923V45.6259ZM26.498 40.7933H24.7793V39.3274H23.7178V40.7933H22.7371V41.7538H23.7178V43.9577C23.7178 45.0799 24.1525 45.7472 25.396 45.7472C25.851 45.7472 26.3767 45.6057 26.7103 45.3731L26.407 44.4733C26.0936 44.6553 25.7499 44.7463 25.4769 44.7463C24.9512 44.7463 24.7793 44.4228 24.7793 43.9375V41.7538H26.498V40.7933ZM35.4655 40.672C34.8589 40.672 34.4646 40.9551 34.1916 41.3797V40.7933H33.1503V45.6259H34.2018V42.9164C34.2018 42.1177 34.5455 41.6729 35.233 41.6729C35.4453 41.6729 35.6677 41.7032 35.8901 41.7942L36.2136 40.8034C35.9811 40.7125 35.6778 40.672 35.4655 40.672ZM21.9081 41.1775C21.4026 40.8439 20.7051 40.672 19.9367 40.672C18.7134 40.672 17.9248 41.2584 17.9248 42.2188C17.9248 43.0074 18.5112 43.4927 19.593 43.6443L20.0883 43.7151C20.6646 43.796 20.9376 43.9476 20.9376 44.2206C20.9376 44.5947 20.5534 44.807 19.8356 44.807C19.1077 44.807 18.582 44.5744 18.2281 44.3015L17.7327 45.1204C18.309 45.545 19.0369 45.7472 19.8255 45.7472C21.2207 45.7472 22.0294 45.09 22.0294 44.17C22.0294 43.3208 21.3925 42.876 20.3411 42.7243L19.8457 42.6536C19.3908 42.5929 19.0268 42.5019 19.0268 42.1784C19.0268 41.8245 19.3705 41.6122 19.9468 41.6122C20.5635 41.6122 21.16 41.8448 21.4532 42.0267L21.9081 41.1775ZM50.0692 40.672C49.4626 40.672 49.0683 40.9551 48.7954 41.3797V40.7933H47.7541V45.6259H48.8055V42.9164C48.8055 42.1177 49.1492 41.6729 49.8367 41.6729C50.049 41.6729 50.2714 41.7032 50.4938 41.7942L50.8174 40.8034C50.5848 40.7125 50.2815 40.672 50.0692 40.672ZM36.527 43.2096C36.527 44.6755 37.5481 45.7472 39.105 45.7472C39.833 45.7472 40.3182 45.5854 40.844 45.1709L40.3385 44.3217C39.9442 44.6048 39.5297 44.7564 39.0747 44.7564C38.2356 44.7463 37.6189 44.1397 37.6189 43.2096C37.6189 42.2795 38.2356 41.6729 39.0747 41.6628C39.5297 41.6628 39.9442 41.8144 40.3385 42.0975L40.844 41.2483C40.3182 40.8338 39.833 40.672 39.105 40.672C37.5481 40.672 36.527 41.7437 36.527 43.2096ZM46.3741 43.2096V40.7933H45.3226V41.3797C44.989 40.945 44.4835 40.672 43.796 40.672C42.4413 40.672 41.3798 41.7336 41.3798 43.2096C41.3798 44.6857 42.4413 45.7472 43.796 45.7472C44.4835 45.7472 44.989 45.4742 45.3226 45.0395V45.6259H46.3741V43.2096ZM42.4615 43.2096C42.4615 42.3604 43.0176 41.6628 43.9275 41.6628C44.7969 41.6628 45.3833 42.33 45.3833 43.2096C45.3833 44.0892 44.7969 44.7564 43.9275 44.7564C43.0176 44.7564 42.4615 44.0588 42.4615 43.2096ZM29.7736 40.672C28.3582 40.672 27.3675 41.7032 27.3675 43.2096C27.3675 44.7463 28.3987 45.7472 29.8444 45.7472C30.5723 45.7472 31.2396 45.5652 31.8259 45.0698L31.3103 44.2914C30.9059 44.6149 30.3903 44.7969 29.9051 44.7969C29.2277 44.7969 28.611 44.4834 28.4593 43.614H32.0483C32.0585 43.4826 32.0686 43.3511 32.0686 43.2096C32.0585 41.7032 31.1283 40.672 29.7736 40.672ZM29.7534 41.6122C30.4308 41.6122 30.8655 42.0369 30.9767 42.785H28.4694C28.5807 42.0874 29.0053 41.6122 29.7534 41.6122ZM56.125 43.2096V38.8522H55.0736V41.3797C54.74 40.945 54.2345 40.672 53.547 40.672C52.1923 40.672 51.1308 41.7336 51.1308 43.2096C51.1308 44.6857 52.1923 45.7472 53.547 45.7472C54.2345 45.7472 54.74 45.4742 55.0736 45.0395V45.6259H56.125V43.2096ZM52.2125 43.2096C52.2125 42.3604 52.7686 41.6628 53.6785 41.6628C54.5479 41.6628 55.1343 42.33 55.1343 43.2096C55.1343 44.0892 54.5479 44.7564 53.6785 44.7564C52.7686 44.7564 52.2125 44.0588 52.2125 43.2096ZM16.7116 43.2096V40.7933H15.6602V41.3797C15.3266 40.945 14.8211 40.672 14.1336 40.672C12.7789 40.672 11.7174 41.7336 11.7174 43.2096C11.7174 44.6857 12.7789 45.7472 14.1336 45.7472C14.8211 45.7472 15.3266 45.4742 15.6602 45.0395V45.6259H16.7116V43.2096ZM12.7991 43.2096C12.7991 42.3604 13.3552 41.6628 14.2651 41.6628C15.1345 41.6628 15.7209 42.33 15.7209 43.2096C15.7209 44.0892 15.1345 44.7564 14.2651 44.7564C13.3552 44.7564 12.7991 44.0588 12.7991 43.2096ZM57.8791 44.9232C57.9448 44.9232 58.0105 44.9333 58.0712 44.9586C58.1319 44.9839 58.1824 45.0193 58.2279 45.0597C58.2734 45.1052 58.3088 45.1558 58.3341 45.2114C58.3593 45.267 58.3745 45.3327 58.3745 45.3984C58.3745 45.4641 58.3593 45.5248 58.3341 45.5854C58.3088 45.641 58.2734 45.6966 58.2279 45.7371C58.1824 45.7826 58.1319 45.8129 58.0712 45.8382C58.0105 45.8635 57.9499 45.8786 57.8791 45.8786C57.8083 45.8786 57.7477 45.8635 57.687 45.8382C57.6264 45.8129 57.5758 45.7775 57.5303 45.7371C57.4848 45.6916 57.4494 45.641 57.4242 45.5854C57.3989 45.5298 57.3837 45.4641 57.3837 45.3984C57.3837 45.3327 57.3989 45.272 57.4242 45.2114C57.4494 45.1507 57.4848 45.1002 57.5303 45.0597C57.5758 45.0142 57.6264 44.9839 57.687 44.9586C57.7477 44.9384 57.8083 44.9232 57.8791 44.9232ZM57.8791 45.7775C57.9297 45.7775 57.9802 45.7674 58.0257 45.7472C58.0712 45.727 58.1116 45.7017 58.142 45.6663C58.1774 45.6309 58.2026 45.5905 58.2228 45.545C58.2431 45.4995 58.2532 45.4489 58.2532 45.3984C58.2532 45.3478 58.2431 45.2973 58.2228 45.2518C58.2026 45.2063 58.1774 45.1659 58.142 45.1305C58.1066 45.0951 58.0712 45.0698 58.0257 45.0496C57.9802 45.0294 57.9347 45.0193 57.8791 45.0193C57.8286 45.0193 57.778 45.0294 57.7325 45.0496C57.687 45.0698 57.6466 45.0951 57.6112 45.1305C57.5758 45.1659 57.5505 45.2063 57.5303 45.2518C57.5101 45.2973 57.5 45.3478 57.5 45.3984C57.5 45.4489 57.5101 45.4995 57.5303 45.545C57.5505 45.5905 57.5758 45.6309 57.6112 45.6663C57.6466 45.7017 57.687 45.727 57.7325 45.7472C57.778 45.7674 57.8286 45.7775 57.8791 45.7775ZM57.9094 45.181C57.965 45.181 58.0105 45.1962 58.0409 45.2215C58.0712 45.2467 58.0864 45.2821 58.0864 45.3276C58.0864 45.363 58.0763 45.3933 58.051 45.4186C58.0257 45.4439 57.9903 45.4591 57.9448 45.4641L58.0914 45.6309H57.9752L57.8387 45.4641H57.7932V45.6309H57.6971V45.1861H57.9094V45.181ZM57.7982 45.2619V45.3832H57.9094C57.9347 45.3832 57.9549 45.3782 57.9701 45.3681C57.9853 45.358 57.9903 45.3428 57.9903 45.3226C57.9903 45.3024 57.9853 45.2872 57.9701 45.2771C57.9549 45.267 57.9347 45.2619 57.9094 45.2619H57.7982V45.2619ZM57.227 29.5511V28.9648H57.4646V28.8434H56.8631V28.9648H57.1007V29.5511H57.227ZM58.3947 29.5511V28.8434H58.2127L58.0004 29.3287L57.7881 28.8434H57.6061V29.5511H57.7376V29.0204L57.9347 29.4804H58.0712L58.2683 29.0204V29.5562H58.3947V29.5511ZM27.9083 33.0694C28.0499 33.1907 28.2015 33.312 28.3481 33.4333C25.4618 35.3542 21.9991 36.4764 18.2736 36.4764C8.22439 36.4764 0.0758209 28.3278 0.0758209 18.2786C0.0758209 8.22938 8.22439 0.0808105 18.2736 0.0808105C21.9991 0.0808105 25.4618 1.20301 28.3481 3.12389C28.2015 3.24521 28.0499 3.36147 27.9083 3.48784C23.6218 7.21839 21.16 12.612 21.16 18.2786C21.165 23.9452 23.6218 29.3388 27.9083 33.0694ZM40.7681 0.0808105C37.0426 0.0808105 33.58 1.20301 30.6936 3.12389C30.8402 3.24521 30.9919 3.36147 31.1334 3.48784C35.42 7.21839 37.8818 12.607 37.8818 18.2786C37.8818 23.9503 35.425 29.3388 31.1385 33.0694C30.9969 33.1907 30.8453 33.312 30.6987 33.4333C33.5851 35.3542 37.0477 36.4764 40.7732 36.4764C50.8224 36.4764 58.971 28.3278 58.971 18.2786C58.9659 8.22433 50.8174 0.0808105 40.7681 0.0808105ZM29.5209 3.97817C29.2883 4.16015 29.0558 4.35224 28.8334 4.54938C24.9967 7.88565 22.5703 12.7991 22.5703 18.2786C22.5703 23.7582 24.9967 28.6716 28.8334 32.0078C29.0558 32.205 29.2883 32.392 29.5209 32.5791C29.7534 32.392 29.9859 32.205 30.2083 32.0078C34.0451 28.6716 36.4714 23.7582 36.4714 18.2786C36.4714 12.7991 34.0451 7.88565 30.2083 4.54938C29.9859 4.35224 29.7585 4.16015 29.5209 3.97817Z" fill="white"/>
</svg>
