<svg width="151" height="46" viewBox="0 0 151 46" fill="none" xmlns="http://www.w3.org/2000/svg">
<g clip-path="url(#clip0)">
<path d="M55.2 44.626L62.8468 1.61304H74.7948L67.387 44.626H55.2Z" fill="white"/>
<path d="M110.639 2.09089C108.249 1.13504 104.426 0.179199 99.6468 0.179199C87.6987 0.179199 79.0961 6.15322 79.0961 14.7558C79.0961 21.2078 85.0701 24.5532 89.8494 26.7039C94.6286 28.8545 96.0624 30.2883 96.0624 32.2C96.0624 35.0675 92.239 36.5013 88.8935 36.5013C84.1143 36.5013 81.4857 35.7844 77.4234 34.1117L75.7507 33.3948L74.0779 43.1922C76.9455 44.387 82.2026 45.5818 87.6987 45.5818C100.364 45.5818 108.727 39.6078 108.727 30.5273C108.727 25.5091 105.621 21.6857 98.452 18.5792C94.1507 16.4285 91.5221 15.2337 91.5221 13.0831C91.5221 11.1714 93.6727 9.25972 98.452 9.25972C102.514 9.25972 105.382 9.9766 107.532 10.9324L108.727 11.4104L110.639 2.09089Z" fill="white"/>
<path d="M131.19 1.61304C128.322 1.61304 126.171 1.852 124.977 4.71953L107.055 44.626H119.958L122.348 37.4572H137.641L139.075 44.626H150.545L140.509 1.61304H131.19V1.61304ZM125.693 30.2884C126.41 28.1377 130.473 17.6234 130.473 17.6234C130.473 17.6234 131.429 14.9949 132.145 13.3221L132.862 17.3845C132.862 17.3845 135.252 28.1377 135.73 30.5273H125.693V30.2884Z" fill="white"/>
<path fill-rule="evenodd" clip-rule="evenodd" d="M2.15065 2.09096L0 1.61304H22.2234C24.8519 1.61304 27.0026 2.32992 27.7195 5.19745L32.0208 25.5091C32.0208 25.5091 32.0208 25.5091 32.0208 25.5091C32.0208 25.5091 32.0208 25.5092 32.0208 25.5092L33.2156 31.7222L45.4026 1.85205H58.3065L38.9507 44.865H26.0468L15.4453 7.17102C11.5526 4.98806 7.10209 3.25146 2.15065 2.09096Z" fill="white"/>
</g>
<defs>
<clipPath id="clip0">
<rect width="150.545" height="46" fill="white"/>
</clipPath>
</defs>
</svg>
